<svg id="Layer_1" data-name="Layer 1" xmlns="http://www.w3.org/2000/svg" width="128" height="32" viewBox="0 0 128 32"><title>logo_coloured</title><polygon points="68.107 10.338 72.843 10.338 76.44 19.985 76.498 19.985 79.832 10.338 84.246 10.338 78.632 24.547 73.983 24.547 68.107 10.338" fill="#37454d"/><path d="M50.9,13.846H46.656v4.737a8.046,8.046,0,0,0,.065,1.068,2,2,0,0,0,.289.833,1.42,1.42,0,0,0,.691.541,3.343,3.343,0,0,0,1.239.19,9.063,9.063,0,0,0,1.012-.073,1.817,1.817,0,0,0,.948-.336v3.654a7.934,7.934,0,0,1-1.673.351,16.866,16.866,0,0,1-1.7.088,10.094,10.094,0,0,1-2.251-.234,5.38,5.38,0,0,1-1.8-.745,3.583,3.583,0,0,1-1.206-1.331,4.192,4.192,0,0,1-.435-1.988V13.846H38.745V10.338h3.086V6.127h4.824v4.21H50.9Z" fill="#37454d"/><path d="M52.14,10.338h4.386v2.281h.059a5.375,5.375,0,0,1,1.666-1.973,4.208,4.208,0,0,1,2.427-.659c.254,0,.506.01.76.029a3.9,3.9,0,0,1,.7.117v4.006a6.512,6.512,0,0,0-.922-.219,6,6,0,0,0-.95-.073,4.658,4.658,0,0,0-1.989.351,2.648,2.648,0,0,0-1.126.979,3.73,3.73,0,0,0-.511,1.5,14.706,14.706,0,0,0-.117,1.931v5.935H52.14Z" fill="#37454d"/><path d="M65.358,8.877a2.334,2.334,0,0,0,2.33-2.33,2.33,2.33,0,0,0-4.66,0,2.334,2.334,0,0,0,2.329,2.33Z" fill="#37454d"/><rect x="63.167" y="10.338" width="4.386" height="14.209" fill="#37454d"/><path d="M91.686,18.319q-.5,0-1.243.045a6.287,6.287,0,0,0-1.432.249,3.2,3.2,0,0,0-1.17.613,1.418,1.418,0,0,0-.482,1.141,1.253,1.253,0,0,0,.673,1.169,2.811,2.811,0,0,0,1.4.381,4.377,4.377,0,0,0,1.243-.176,3.721,3.721,0,0,0,1.067-.5,2.416,2.416,0,0,0,.746-.819,2.359,2.359,0,0,0,.277-1.17v-.936Zm1.081,4.445h-.059A4.117,4.117,0,0,1,90.765,24.4a6.665,6.665,0,0,1-2.559.5,6.584,6.584,0,0,1-1.915-.278,4.813,4.813,0,0,1-1.623-.833,4.02,4.02,0,0,1-1.11-1.374,4.176,4.176,0,0,1-.409-1.9,4.361,4.361,0,0,1,.453-2.076,4.061,4.061,0,0,1,1.228-1.4,6.088,6.088,0,0,1,1.77-.862,12.884,12.884,0,0,1,2.061-.454,20.033,20.033,0,0,1,2.134-.176q1.067-.028,1.972-.029a2.28,2.28,0,0,0-.833-1.856,3.005,3.005,0,0,0-1.973-.686,4.29,4.29,0,0,0-1.974.453,5.406,5.406,0,0,0-1.594,1.242l-2.338-2.4a8.027,8.027,0,0,1,2.865-1.71,10.225,10.225,0,0,1,3.391-.571,8.886,8.886,0,0,1,3.173.483,4.62,4.62,0,0,1,1.988,1.419,5.458,5.458,0,0,1,1.038,2.294,15.063,15.063,0,0,1,.293,3.143v7.221H92.767Z" fill="#37454d"/><path d="M126.976,14.372a7.073,7.073,0,0,0-1.52-2.353,6.659,6.659,0,0,0-2.276-1.506,7.655,7.655,0,0,0-5.58,0,6.629,6.629,0,0,0-2.274,1.506,7.1,7.1,0,0,0-1.522,2.353,8.145,8.145,0,0,0-.555,3.071,8.137,8.137,0,0,0,.555,3.07,7.086,7.086,0,0,0,1.522,2.353,6.58,6.58,0,0,0,2.274,1.5,7.646,7.646,0,0,0,5.58,0,6.608,6.608,0,0,0,2.276-1.5,7.062,7.062,0,0,0,1.52-2.353,8.113,8.113,0,0,0,.557-3.07A8.121,8.121,0,0,0,126.976,14.372Zm-4.244,5.672a3.254,3.254,0,0,1-4.683,0,3.917,3.917,0,0,1-.834-2.6,3.92,3.92,0,0,1,.834-2.6,3.253,3.253,0,0,1,4.683,0,3.92,3.92,0,0,1,.834,2.6A3.917,3.917,0,0,1,122.732,20.044Z" fill="#37454d"/><path d="M108.519,10.389v1.9h0a5.628,5.628,0,0,0-.631-.716,4.957,4.957,0,0,0-1.052-.673,6.638,6.638,0,0,0-1.39-.52,6.72,6.72,0,0,0-1.71-.2,6,6,0,0,0-4.751,2.282,6.675,6.675,0,0,0-1.036,2.35,10.453,10.453,0,0,0-.309,2.768,11.01,11.01,0,0,0,.423,3.006,6.06,6.06,0,0,0,1.1,2.269,5.427,5.427,0,0,0,2.207,1.516,7.322,7.322,0,0,0,2.866.533,6.064,6.064,0,0,0,2.12-.44,2.515,2.515,0,0,0,1.66-1.477h0v1.436a3.349,3.349,0,0,1-.808,2.5,3.758,3.758,0,0,1-2.879,1,7.74,7.74,0,0,1-2.36-.228,7.992,7.992,0,0,1-2.523-1.133l-2.124,3.121a9.8,9.8,0,0,0,3.39,1.651,14.5,14.5,0,0,0,3.733.425c2.768,0,4.748-.7,6.1-2.091s1.928-3.435,1.928-6.126V10.389Zm-1.035,9.655a3.254,3.254,0,0,1-4.683,0,3.924,3.924,0,0,1-.832-2.6,3.927,3.927,0,0,1,.832-2.6,3.254,3.254,0,0,1,4.683,0,3.914,3.914,0,0,1,.834,2.6A3.911,3.911,0,0,1,107.484,20.044Z" fill="#37454d"/><path d="M12.153,27.151C-.473,20.834,1.417,9.375,4.7,4.334A16.367,16.367,0,0,0,2.239,7.34v0h0A14.04,14.04,0,0,0,.363,18.011,17.7,17.7,0,0,0,8.016,28.463a20.111,20.111,0,0,0,12.231,3.5,11.89,11.89,0,0,0,9.35-5.481,13.225,13.225,0,0,0,1.518-3.42C30.673,23.752,24.656,33.406,12.153,27.151Z" fill="#c94a30"/><path d="M20.721,26.887c-.217.026-.443.044-.678.05a16.628,16.628,0,0,1-7.471-1.9,14.864,14.864,0,0,1-4.978-4.1C0,11.291,9.791,1.375,12.475.21A14.759,14.759,0,0,0,10.7.634a15.765,15.765,0,0,0-6,3.7,15.758,15.758,0,0,0-.934,1.314v0h0a13.685,13.685,0,0,0-1.827,10.4A17.247,17.247,0,0,0,9.394,26.235a19.6,19.6,0,0,0,11.921,3.416,11.585,11.585,0,0,0,9.113-5.343,12.421,12.421,0,0,0,.687-1.242c.047-.171.068-.27.068-.27.1-.42.25-1.185.289-1.437a16.084,16.084,0,0,0-.2-5.679C30.833,19.25,28,26.25,20.721,26.887ZM6.49,19.141l-.007-.016.009.019Zm13.563,7.8h0Z" fill="#f48f00"/><path d="M28.928,9.6c-.271-.491-.708-1.139-.734-1.176-.37-.544-.762-1.069-1.078-1.452a2.277,2.277,0,0,0-3.54,2.865A16.091,16.091,0,0,1,25.585,13.2a15.331,15.331,0,0,1,1.126,3.721,9.881,9.881,0,0,1-1.205,6.914,6.581,6.581,0,0,1-4.283,2.978l-.041.007c-.149.028-.3.052-.461.071.26,0,.513-.012.756-.028a10.217,10.217,0,0,0,8.038-4.712,10.994,10.994,0,0,0,1.364-3.171c.09-.361.214-1.019.249-1.235a12.132,12.132,0,0,0,.142-2.06,20.161,20.161,0,0,0-.536-2.051A22.378,22.378,0,0,0,28.928,9.6Z" fill="#007fad"/><path d="M6.493,19.147a10.473,10.473,0,0,1-.82-2.318,8.947,8.947,0,0,1,1.3-6.591c1.86-2.695,4-4.417,8.949-4.48a2.741,2.741,0,0,0,2.986-2.448A2.873,2.873,0,0,0,16.311.1,11.261,11.261,0,0,0,14.528,0h0a12.665,12.665,0,0,0-2.05.207A14.367,14.367,0,0,0,6,5.688v0H6a12.07,12.07,0,0,0-1.612,9.171,14,14,0,0,0,3.211,6.072A11.2,11.2,0,0,1,6.493,19.147Zm0-.006-.007-.016.009.019Z" fill="#007fad"/></svg>